<mxfile host="app.diagrams.net" modified="2024-02-15T17:49:22.587Z" agent="Mozilla/5.0 (Macintosh; Intel Mac OS X 10_15_7) AppleWebKit/537.36 (KHTML, like Gecko) Chrome/121.0.0.0 Safari/537.36 Edg/121.0.0.0" version="23.1.4" etag="zxZTRjaT994AM5thE3TM" type="github">
  <diagram name="Page-1" id="JQhbtZ8zFjnkn_hgi96n">
    <mxGraphModel>
      <root>
        <mxCell id="0" />
        <mxCell id="1" parent="0" />
      </root>
    </mxGraphModel>
  </diagram>
</mxfile>
